<svg width="169" height="46" viewBox="0 0 169 46" fill="none" xmlns="http://www.w3.org/2000/svg">
<path d="M154.162 34.8723C147.315 34.8723 141.951 29.6715 141.951 23.0398C141.951 16.4081 147.315 11.1274 154.162 11.1274C161.01 11.1274 166.374 16.3558 166.374 23.0398C166.374 29.7238 161.002 34.8723 154.162 34.8723ZM154.162 15.1478C149.817 15.1478 146.412 18.6095 146.412 23.0288C146.412 27.4481 149.817 30.8768 154.162 30.8768C158.566 30.8768 161.869 27.5031 161.869 23.0288C161.877 18.6095 158.489 15.1478 154.162 15.1478Z" fill="#4B4C5A"/>
<path d="M121.441 34.5971C121.368 34.5971 121.298 34.5682 121.247 34.5165C121.195 34.4649 121.166 34.3949 121.166 34.322V13.3426C121.175 12.7892 121.403 12.2618 121.8 11.8763C122.198 11.4909 122.732 11.279 123.285 11.2871H137.333C137.406 11.2871 137.476 11.316 137.527 11.3677C137.579 11.4193 137.608 11.4893 137.608 11.5622C137.609 12.0273 137.519 12.4881 137.342 12.9183C137.166 13.3486 136.906 13.7398 136.578 14.0697C136.25 14.3996 135.861 14.6616 135.431 14.841C135.002 15.0203 134.542 15.1133 134.077 15.1147H125.405V20.8549H134.115C134.594 20.8485 135.057 21.0219 135.414 21.3409C135.771 21.6599 135.995 22.1012 136.042 22.5775C136.067 22.8492 136.035 23.1231 135.948 23.3818C135.862 23.6405 135.722 23.8783 135.538 24.0799C135.367 24.2659 135.159 24.4141 134.927 24.515C134.695 24.6159 134.445 24.6674 134.192 24.6661H125.407V30.6346C125.406 31.6856 124.987 32.693 124.244 33.4359C123.5 34.1788 122.492 34.5964 121.441 34.5971V34.5971Z" fill="#4B4C5A"/>
<path d="M112.205 34.5972C111.849 34.5927 111.5 34.5029 111.186 34.3353C110.873 34.1677 110.604 33.9272 110.402 33.6341L105.468 26.7327C105.307 26.5085 105.096 26.3256 104.851 26.1993C104.606 26.073 104.334 26.0068 104.058 26.0062H100.946C100.873 26.0062 100.803 25.9772 100.751 25.9256C100.7 25.874 100.67 25.804 100.67 25.731C100.671 24.8292 101.03 23.9646 101.668 23.3269C102.305 22.6892 103.17 22.3306 104.072 22.3299H105.487C106.893 22.3299 107.807 22.1428 108.539 21.7107C109.227 21.2842 110.053 20.4092 110.053 18.6838C110.053 17.2639 109.577 16.265 108.594 15.6239C107.691 15.0515 106.533 14.9745 105.52 14.9745H100.178V26.4135L100.211 30.5989C100.21 31.6584 99.7889 32.6742 99.0396 33.4234C98.2903 34.1725 97.2743 34.5937 96.2147 34.5944C96.1756 34.5944 96.137 34.586 96.1014 34.5699C96.0658 34.5538 96.034 34.5302 96.0083 34.5009C95.964 34.4507 95.9395 34.3862 95.9395 34.3193V13.406C95.9402 12.8442 96.1637 12.3057 96.561 11.9085C96.9583 11.5113 97.4968 11.2878 98.0586 11.2871H105.897C108.393 11.2871 110.212 11.7412 111.619 12.718C113.347 13.9536 114.338 16.0972 114.338 18.6068C114.338 20.954 113.449 22.8527 111.699 24.2561C111.085 24.7654 110.388 25.164 109.637 25.4339L114.005 31.3501C114.225 31.6755 114.343 32.0584 114.346 32.4508C114.342 33.0178 114.115 33.5604 113.715 33.9618C113.314 34.3633 112.772 34.5914 112.205 34.5972V34.5972Z" fill="#4B4C5A"/>
<path d="M77.1168 34.5971H68.8299C68.7569 34.5971 68.6869 34.5681 68.6353 34.5165C68.5837 34.4649 68.5547 34.3949 68.5547 34.3219V13.3673C68.5641 12.8075 68.7949 12.2743 69.1968 11.8844C69.5986 11.4945 70.1388 11.2797 70.6987 11.287H77.5792C81.881 11.287 84.9414 12.4428 87.212 14.9193C89.056 16.8758 89.9918 19.5698 89.9918 22.9269C89.9918 26.7299 88.6625 29.8311 86.1387 31.8949C83.9397 33.7138 80.9727 34.5971 77.1168 34.5971ZM72.8482 30.7061H76.8169C79.4728 30.7061 81.5726 30.076 83.0588 28.8322C84.79 27.4068 85.6295 25.4118 85.6295 22.7288C85.6295 20.4036 85.0184 18.6012 83.7634 17.1978C82.313 15.5963 80.0424 14.7817 77.015 14.7817H72.8482V30.7061Z" fill="#4B4C5A"/>
<path d="M149.294 31.584C156.926 24.7514 162.975 24.49 167.142 28.3177C169.828 30.8575 168.945 33.6753 168.485 34.699C168.468 34.7425 168.439 34.7804 168.402 34.8082C168.364 34.836 168.319 34.8526 168.273 34.8561C168.226 34.8595 168.179 34.8497 168.138 34.8277C168.097 34.8058 168.062 34.7726 168.039 34.732C166.322 32.1178 160.672 24.4157 149.294 31.584Z" fill="#4B4C5A"/>
<g clip-path="url(#clip0_901_499)">
<path d="M44.3262 16.8878C44.2326 15.8509 43.95 14.8398 43.4926 13.9046C42.9556 12.8516 42.3341 11.8438 41.6343 10.8912C40.0089 8.70539 38.0327 6.80385 35.7859 5.26379C33.9304 3.99322 31.9289 2.95031 29.8245 2.15752C27.9741 1.45138 26.059 0.928242 24.1066 0.595601C22.3494 0.298595 20.5703 0.149081 18.7881 0.148621C18.0749 0.148621 17.3693 0.172058 16.6712 0.218932C14.7954 0.341977 13.246 2.4237 13.02 5.17088V5.21859C16.8498 4.65559 20.7414 4.65559 24.5712 5.21859C26.6247 5.5192 28.6485 5.99555 30.6205 6.6424C32.7232 7.3291 34.7442 8.24444 36.6472 9.37199C38.7183 10.584 40.5782 12.1251 42.1541 13.9347C42.9461 14.868 43.6309 15.8872 44.1957 16.9732C44.2384 17.056 44.3262 17.0033 44.3162 16.9004L44.3262 16.8878Z" fill="#EDB256"/>
<path d="M42.6364 18.7812C42.5611 17.5959 42.0765 16.5463 41.3507 16.0189C40.0704 15.11 38.6996 14.3359 37.2601 13.7087C35.3156 12.8525 33.2987 12.171 31.2334 11.6722C29.1584 11.1632 27.052 10.7924 24.928 10.5623C20.8518 10.1203 16.7398 10.1203 12.6636 10.5623C10.5396 10.7924 8.43313 11.1632 6.35817 11.6722C5.06601 11.9883 3.79115 12.3713 2.53875 12.8198C1.16516 13.2994 0.150668 15.0045 0 17.0586V17.0937C1.97866 16.5171 3.99151 16.0651 6.02671 15.7402C8.03561 15.4087 10.1902 15.1551 12.4602 14.9869C14.4892 14.8362 16.6061 14.7584 18.7857 14.7584C20.9654 14.7584 23.0823 14.8362 25.1113 14.9869C27.3713 15.1526 29.5384 15.4062 31.5448 15.7402C33.58 16.0648 35.5929 16.5168 37.5715 17.0937C39.2525 17.5667 40.8774 18.22 42.418 19.0423C42.5285 19.1026 42.644 18.9745 42.6314 18.8038L42.6364 18.7812Z" fill="#DB9669"/>
<path d="M44.3262 29.112C44.2326 30.1489 43.95 31.1599 43.4926 32.0952C42.955 33.1439 42.3335 34.1474 41.6343 35.096C40.0089 37.2818 38.0327 39.1833 35.7859 40.7234C33.931 41.9983 31.9295 43.0455 29.8245 43.8422C27.9741 44.5484 26.059 45.0715 24.1066 45.4042C22.3494 45.7012 20.5703 45.8507 18.7881 45.8511C18.0749 45.8511 17.3693 45.8277 16.6712 45.7808C14.7954 45.6578 13.246 43.576 13.02 40.8364V40.7887C16.8498 41.3517 20.7414 41.3517 24.5712 40.7887C26.6247 40.4881 28.6485 40.0117 30.6205 39.3649C32.7232 38.6782 34.7442 37.7628 36.6472 36.6353C38.7183 35.4233 40.5782 33.8822 42.1541 32.0726C42.9466 31.1369 43.6314 30.1152 44.1957 29.0266C44.2384 28.9437 44.3262 28.9964 44.3162 29.0994L44.3262 29.112Z" fill="#4F16A8"/>
<path d="M42.6364 27.2186C42.5611 28.4038 42.0765 29.4535 41.3507 29.9808C40.0704 30.8897 38.6996 31.6639 37.2601 32.2911C35.3156 33.1472 33.2987 33.8288 31.2334 34.3276C29.1584 34.8366 27.052 35.2074 24.928 35.4375C22.8915 35.6594 20.8444 35.77 18.7958 35.769C16.7472 35.77 14.7001 35.6594 12.6636 35.4375C10.5396 35.2074 8.43313 34.8366 6.35817 34.3276C5.06601 34.0115 3.79115 33.6284 2.53875 33.18C1.16516 32.7004 0.150668 30.9953 0 28.9412V28.906C1.97866 29.4826 3.99151 29.9347 6.02671 30.2595C8.03561 30.591 10.1902 30.8446 12.4602 31.0129C14.4892 31.1636 16.6061 31.2414 18.7857 31.2414C20.9654 31.2414 23.0823 31.1636 25.1113 31.0129C27.3713 30.8472 29.5384 30.5935 31.5448 30.2595C33.58 29.935 35.5929 29.4829 37.5715 28.906C39.2525 28.4331 40.8774 27.7797 42.418 26.9574C42.5285 26.8971 42.644 27.0252 42.6314 27.196L42.6364 27.2186Z" fill="#8C4892"/>
<path d="M44.6226 22.224C44.0108 22.0272 43.3867 21.8712 42.7543 21.7569C41.4535 21.5058 39.761 21.2773 37.7572 21.0814C35.9768 20.9056 33.9503 20.7549 31.7305 20.6344C29.7065 20.5239 27.5243 20.4385 25.2241 20.3833C23.1625 20.3331 21.0054 20.3055 18.7856 20.3055C16.5658 20.3055 14.4112 20.3331 12.3471 20.3833C10.7098 20.4235 9.13032 20.4762 7.62615 20.544C6.6217 20.5917 4.87646 21.6514 4.87646 22.9497V22.9999C4.87646 24.2981 6.61668 25.3578 7.63871 25.403C9.14538 25.4708 10.7224 25.5261 12.3596 25.5663C14.4238 25.6165 16.5783 25.6441 18.7982 25.6441C21.018 25.6441 23.1751 25.6165 25.2367 25.5663C27.5369 25.511 29.7191 25.4256 31.743 25.3152C33.9603 25.1946 35.9868 25.044 37.7697 24.8682C39.7786 24.6698 41.4661 24.4413 42.7669 24.1902C43.3989 24.0754 44.0229 23.9202 44.6351 23.7256C45.3383 23.4871 45.7149 23.2359 45.7149 22.9723C45.7149 22.7086 45.3257 22.46 44.6226 22.224Z" fill="#C9797C"/>
</g>
<defs>
<clipPath id="clip0_901_499">
<rect width="45.7025" height="45.7025" fill="white" transform="translate(0 0.148621)"/>
</clipPath>
</defs>
</svg>
